<?xml version="1.0" encoding="utf-8"?>
<!-- Generator: Adobe Illustrator 27.9.6, SVG Export Plug-In . SVG Version: 9.03 Build 54986)  -->
<svg version="1.1" id="Capa_1" xmlns="http://www.w3.org/2000/svg" xmlns:xlink="http://www.w3.org/1999/xlink" x="0px" y="0px"
	 viewBox="0 0 131.7 39.1" style="enable-background:new 0 0 131.7 39.1;" xml:space="preserve">
<style type="text/css">
	.st0{fill:#FFFFFF;}
	.st1{fill:#FDEA14;}
</style>
<g>
	<path class="st0" d="M30.3,27c1.9-2.1,5.1-6.4,5.1-11.4c0-8.2-8-12.6-15.5-12.6H19v3.1l0,1.4c1.3-0.2,2.6-0.2,3.9,0.2
		c4.5,1.4,7.1,6.2,5.7,10.7c-0.4,1.5-1.3,2.9-2.4,4.1l0,0l-5.5,5.9l0,0l-7.4-2.2l-1.3-7.9c0,0,0,0,0,0l0,0l0,0
		c-0.3-1.6-0.2-3.2,0.3-4.7c0.3-0.9,0.6-1.7,1.1-2.4L13.3,3H7.8L1.9,8.4l2.8,3l2.9-2.7L8,36.1h26.5v-4.8h-8.2L30.3,27z M16.3,33
		l-1.5-0.4c-0.6-0.2-1-1-1.1-1.7l4.4,1.3C17.7,32.7,16.9,33.2,16.3,33z M19.9,31.8c0,0.1-0.2,0.2-0.3,0.2l-6.9-2c0,0,0,0,0,0
		c-0.1,0-0.2-0.2-0.2-0.3l0.8-2.8l7.4,2.2L19.9,31.8z"/>
	<g>
		<path class="st0" d="M43.1,14.9l2.7-6.7h0.7l2.7,6.7h-1L46,9.3h0.3l-2.3,5.6H43.1z M44.4,13.4v-0.8h3.5v0.8H44.4z"/>
		<path class="st0" d="M54.1,14.9V8.3h0.6L55,9.3v5.6H54.1z M58.7,14.9l-4.1-5.5l0.1-1.2l4.1,5.5L58.7,14.9z M57.4,7.6
			c-0.2,0-0.4,0-0.5-0.1c-0.1-0.1-0.3-0.2-0.4-0.2c-0.1-0.1-0.3-0.1-0.4-0.1s-0.3,0-0.4,0.1c-0.1,0.1-0.2,0.1-0.3,0.3L54.9,7
			c0.2-0.2,0.3-0.3,0.5-0.5c0.2-0.1,0.4-0.2,0.6-0.2c0.2,0,0.4,0,0.5,0.1s0.3,0.1,0.4,0.2c0.1,0.1,0.3,0.1,0.4,0.1
			c0.2,0,0.3,0,0.4-0.1c0.1-0.1,0.2-0.1,0.3-0.3l0.5,0.5c-0.2,0.2-0.3,0.3-0.5,0.5S57.7,7.6,57.4,7.6z M58.7,14.9l-0.3-1V8.3h0.9
			v6.7H58.7z"/>
		<path class="st0" d="M67.8,15c-0.5,0-0.9-0.1-1.3-0.3c-0.4-0.2-0.8-0.4-1.1-0.7c-0.3-0.3-0.5-0.7-0.7-1.1
			c-0.2-0.4-0.3-0.9-0.3-1.3c0-0.5,0.1-0.9,0.3-1.3c0.2-0.4,0.4-0.8,0.7-1.1c0.3-0.3,0.7-0.6,1.1-0.7c0.4-0.2,0.8-0.3,1.3-0.3
			c0.5,0,0.9,0.1,1.3,0.3c0.4,0.2,0.8,0.4,1.1,0.7c0.3,0.3,0.5,0.7,0.7,1.1c0.2,0.4,0.3,0.9,0.3,1.3c0,0.5-0.1,0.9-0.3,1.3
			c-0.2,0.4-0.4,0.8-0.7,1.1s-0.7,0.6-1.1,0.7C68.7,14.9,68.3,15,67.8,15z M67.8,14.2c0.5,0,0.9-0.1,1.3-0.3s0.7-0.5,0.9-0.9
			c0.2-0.4,0.3-0.8,0.3-1.3c0-0.4-0.1-0.7-0.2-1c-0.1-0.3-0.3-0.6-0.5-0.8c-0.2-0.2-0.5-0.4-0.8-0.5S68.2,9,67.8,9
			c-0.5,0-0.9,0.1-1.3,0.3c-0.4,0.2-0.6,0.5-0.9,0.9c-0.2,0.4-0.3,0.8-0.3,1.3c0,0.4,0.1,0.7,0.2,1c0.1,0.3,0.3,0.6,0.5,0.8
			c0.2,0.2,0.5,0.4,0.8,0.5C67.1,14.1,67.4,14.2,67.8,14.2z"/>
		<path class="st0" d="M77.9,15c-0.5,0-1-0.1-1.3-0.3s-0.7-0.5-1-0.8l0.6-0.6c0.2,0.3,0.5,0.5,0.7,0.7c0.3,0.2,0.6,0.2,1,0.2
			c0.4,0,0.7-0.1,1-0.3c0.2-0.2,0.4-0.4,0.4-0.7c0-0.3-0.1-0.5-0.2-0.6c-0.1-0.2-0.3-0.3-0.5-0.4C78.5,12.1,78.2,12,78,12
			c-0.2-0.1-0.5-0.2-0.7-0.3c-0.2-0.1-0.4-0.2-0.6-0.4c-0.2-0.1-0.4-0.3-0.5-0.5C76.1,10.6,76,10.3,76,10c0-0.4,0.1-0.7,0.3-1
			s0.4-0.5,0.8-0.6c0.3-0.1,0.7-0.2,1.1-0.2c0.4,0,0.8,0.1,1.2,0.3c0.3,0.2,0.6,0.4,0.8,0.7l-0.6,0.6c-0.2-0.2-0.4-0.4-0.6-0.5
			C78.7,9.1,78.4,9,78.1,9c-0.4,0-0.6,0.1-0.9,0.2c-0.2,0.2-0.3,0.4-0.3,0.7c0,0.2,0.1,0.4,0.2,0.5c0.1,0.1,0.3,0.3,0.5,0.4
			s0.4,0.2,0.6,0.3c0.2,0.1,0.5,0.2,0.7,0.3c0.2,0.1,0.4,0.2,0.6,0.4s0.3,0.3,0.5,0.6c0.1,0.2,0.2,0.5,0.2,0.9
			c0,0.6-0.2,1.1-0.6,1.4C79.2,14.9,78.6,15,77.9,15z"/>
	</g>
	<g>
		<g>
			<path class="st0" d="M48.3,30.7c0-0.3,0.2-0.5,0.4-0.5v1.1C48.4,31.1,48.3,30.9,48.3,30.7L48.3,30.7z"/>
			<path class="st0" d="M49,29.5c0-0.4,0.3-0.7,0.7-0.7h0.2l-0.2,0.8c0,0,0,0,0,0c0,0.1,0.1,0.1,0.1,0.2c0.1,0,0.2,0,0.2-0.1
				l0.2-0.9h0.7l-0.5,2.4c0,0,0,0,0,0c0,0.1,0.1,0.1,0.1,0.2c0.1,0,0.2,0,0.2-0.1l0.4-2.1v3.3h-0.6c0,0,0,0,0,0l0.1-0.3
				c0-0.1,0-0.2-0.1-0.2c-0.1,0-0.2,0-0.2,0.1l-0.1,0.3c0,0,0,0,0,0.1h-0.5c-0.1,0-0.1,0-0.2,0c0,0,0,0,0,0l0.4-2.1
				c0-0.1,0-0.2-0.1-0.2c-0.1,0-0.2,0-0.2,0.1l-0.4,2.1C49.1,32.2,49,32,49,31.8V29.5L49,29.5z"/>
			<path class="st0" d="M48.7,30.1c0,0-0.7,0.2-1.2,1c-0.1,0.2-0.2,0.3-0.4,0.5c-0.2,0.2-0.4,0.4-0.7,0.7c-0.1,0.1-0.2,0.2-0.4,0.3
				c0.1-0.4,0.2-0.7,0.2-1c0-0.3-0.1-0.6-0.1-0.8c-0.1-0.3-0.2-0.5-0.2-0.7c-0.1-0.2-0.1-0.4-0.1-0.6c0-0.3,0.1-0.6,0.4-0.8
				c0.2-0.2,0.4-0.5,0.6-0.7c0.1-0.1,0.1-0.3,0-0.4c-0.1-0.1-0.2-0.2-0.3-0.3C46.2,27.1,46,27,45.8,27c-0.2,0-0.3,0.1-0.4,0.2
				c-0.1,0.1-0.2,0.2-0.3,0.4c-0.1,0.2-0.3,0.4-0.5,0.6c-0.2,0.2-0.4,0.5-0.6,0.8c-0.2,0.3-0.4,0.5-0.6,0.8
				c-0.2,0.3-0.4,0.5-0.5,0.7c-0.2,0.2-0.3,0.3-0.3,0.4c-0.1,0.1-0.2,0.3-0.3,0.4c-0.1,0.1-0.3,0.3-0.5,0.5
				c-0.2,0.2-0.3,0.3-0.5,0.4c-0.2,0.1-0.3,0.3-0.5,0.4c-0.3,0.2-0.7,0.3-1,0.4c-0.3,0.1-0.6,0.1-0.8,0c-0.2,0-0.5-0.1-0.6-0.3
				c-0.2-0.1-0.3-0.3-0.3-0.6c0.2,0,0.4,0,0.6,0c0.2,0,0.5-0.1,0.8-0.2c0.3-0.1,0.6-0.2,0.9-0.4c0.3-0.2,0.6-0.4,0.9-0.7
				c0.2-0.2,0.3-0.4,0.5-0.6c0.2-0.3,0.3-0.5,0.3-0.8c0.1-0.3,0.1-0.5,0-0.8c-0.1-0.3-0.3-0.4-0.6-0.6c-0.3-0.1-0.7-0.2-1.1-0.1
				c-0.4,0.1-0.8,0.2-1.2,0.4c-0.4,0.2-0.8,0.5-1.1,0.9c-0.4,0.4-0.7,0.8-0.9,1.2c-0.2,0.4-0.4,0.8-0.4,1.3c-0.1,0.5,0,0.9,0.2,1.4
				c0.1,0.3,0.4,0.6,0.7,0.8c0.3,0.2,0.7,0.3,1.2,0.3c0.4,0,0.9,0,1.4-0.2c0.5-0.1,0.9-0.4,1.4-0.7c0.1-0.1,0.3-0.2,0.4-0.3
				c0,0.1,0.1,0.2,0.1,0.3c0.1,0.2,0.2,0.3,0.4,0.5c0.2,0.1,0.3,0.2,0.5,0.3c0.2,0.1,0.4,0.1,0.7,0.1c0.2,0,0.5,0,0.7,0
				c0.4,0,0.9-0.1,1.5-0.3c0.5-0.2,1-0.5,1.5-0.9c0.4-0.4,0.7-0.7,0.9-1c0.2-0.3,0.4-0.5,0.6-0.7c0-0.1,0.1-0.1,0.1-0.2l0,0V30.1z
				 M38,31.1c0.2-0.3,0.4-0.6,0.5-0.8c0.2-0.3,0.4-0.5,0.6-0.7c0.2-0.2,0.4-0.3,0.6-0.4c0.2-0.1,0.3-0.2,0.5-0.2
				c0.3,0,0.4,0.1,0.3,0.4c-0.1,0.3-0.3,0.6-0.6,0.9c-0.3,0.3-0.6,0.5-1,0.6C38.7,31.1,38.3,31.1,38,31.1L38,31.1z M44.4,32.7
				c-0.1,0.2-0.2,0.4-0.4,0.5c-0.2,0.1-0.3,0.1-0.5,0.1c-0.2,0-0.3-0.1-0.4-0.3c-0.1-0.1-0.2-0.3-0.2-0.4c0-0.2,0-0.3,0.1-0.4
				c0.1-0.1,0.2-0.3,0.4-0.5c0.2-0.2,0.5-0.6,0.9-1c0.1,0.2,0.2,0.4,0.2,0.7c0.1,0.3,0.1,0.5,0.1,0.8C44.5,32.2,44.5,32.5,44.4,32.7
				z"/>
		</g>
		<g>
			<g>
				<path class="st1" d="M67.2,25.9c-0.9,0-1.6,0.4-2,0.9l0-0.6h-3.7v1.8h1.5v6.2h-1.6V36h5.2v-1.8h-1.6v-2.8c0-1.6,0.3-3.5,1.7-3.5
					c0.5,0,0.7,0.2,0.8,0.7l0.1,0.5l1.9-1.2l-0.1-0.3C69.3,26.5,68.4,25.9,67.2,25.9z"/>
				<path class="st1" d="M74,34c-0.2,0.2-0.3,0.2-0.5,0.2c-0.1,0-0.3,0-0.3-0.6v-7.5H70v1.8h1.1v5.9c0,1.8,1.1,2.2,2,2.2
					c0.7,0,1.3-0.2,1.7-0.7l0.1-0.2l-0.6-1.6L74,34z"/>
				<path class="st1" d="M72.2,24.5c0.9,0,1.3-0.7,1.3-1.3c0-0.7-0.6-1.3-1.3-1.3c-0.7,0-1.3,0.5-1.3,1.3
					C70.9,23.8,71.4,24.5,72.2,24.5z"/>
				<path class="st1" d="M79.4,34c-0.2,0.2-0.3,0.2-0.5,0.2c-0.1,0-0.3,0-0.3-0.6V19.4h-3.2v1.8h1.1v12.6c0,1.8,1.1,2.2,2,2.2
					c0.8,0,1.3-0.2,1.7-0.7l0.1-0.2l-0.6-1.6L79.4,34z"/>
				<path class="st1" d="M84.9,34c-0.2,0.2-0.3,0.2-0.5,0.2c-0.1,0-0.3,0-0.3-0.6V19.4h-3.2v1.8H82v12.6c0,1.8,1.1,2.2,2,2.2
					c0.8,0,1.3-0.2,1.7-0.7l0.1-0.2l-0.6-1.6L84.9,34z"/>
				<path class="st1" d="M95.7,34c-0.2,0.2-0.3,0.2-0.5,0.2c-0.2,0-0.2,0-0.2-0.4v-4.3c0-1.7-0.7-3.6-4.1-3.6c-1.9,0-3.1,0.6-4,2.2
					l-0.2,0.3l1.8,1l0.2-0.4c0.4-0.9,1-1.3,2.2-1.3c1.4,0,2,0.5,2,1.8v0.7l0,0.1h-2.4c-3.4,0-3.9,1.9-3.9,3c0,1.8,1.3,2.9,3.5,2.9
					c1.3,0,2.4-0.4,3.1-1c0.3,0.6,0.9,0.9,1.8,0.9c0.7,0,1.2-0.2,1.6-0.7l0.2-0.2l-0.6-1.6L95.7,34z M90.4,34.3
					c-1.7,0-1.7-0.9-1.7-1.1c0-0.8,0.6-1.3,1.8-1.3h2.4v0.6C92.9,33.6,91.9,34.3,90.4,34.3z"/>
				<path class="st1" d="M108,34c-0.1,0.2-0.2,0.2-0.5,0.2c-0.1,0-0.3,0-0.3-0.6v-3.9c0-2.6-1.2-3.9-3.6-3.9c-1.4,0-2.3,0.6-2.8,1.1
					l0-0.9h-3.7v1.8h1.6v6.2h-1.6V36h5.2v-1.8h-1.6v-4.1c0.3-1.5,1.2-2.3,2.5-2.3c1.3,0,1.8,0.7,1.8,2.2v3.9c0,1.8,1.1,2.2,2,2.2
					c0.7,0,1.3-0.2,1.7-0.7l0.1-0.2l-0.7-1.7L108,34z"/>
				<path class="st1" d="M114.9,33.9c-0.5,0.2-0.8,0.3-1.1,0.3c-0.6,0-0.9-0.2-0.9-1.7v-4.5h2.2v-1.8h-2.2v-2.8h-1.8l-0.3,2.8h-1.5
					v1.8h1.4v4.8c0,1.5,0.3,3.3,2.6,3.3c0.8,0,1.6-0.2,2.1-0.5l0.2-0.1l-0.4-1.7L114.9,33.9z"/>
				<path class="st1" d="M124.9,33.1l-0.4,0.3c-0.7,0.5-1.8,0.9-3,0.9c-1.6,0-2.6-0.6-2.9-1.9h1.6c3.9,0,4.7-1.8,4.7-3.3
					c0-2-1.4-3.2-3.8-3.2c-3,0-4.8,2-4.8,5.2c0,3.2,1.9,5.1,5.1,5.1c1.5,0,3-0.4,3.9-1.1l0.2-0.1L124.9,33.1z M121.1,27.6
					c0.5,0,1.8,0.1,1.8,1.4c0,0.4,0,1.5-2.6,1.5h-1.8C118.6,28.7,119.5,27.6,121.1,27.6z"/>
			</g>
			<path class="st1" d="M56.3,25.8c-1.5,0-2.5,0.7-3,1.4c0-0.4,0-0.8,0-1.2v-6.6h-3.7v1.8h1.6v6.5v0.8v4.3v1.2h-1.6v1.8h3.7v-0.7
				c0.7,0.5,1.7,0.8,2.8,0.8c2.8,0,4.4-1.9,4.4-5.3C60.5,27.6,59,25.8,56.3,25.8z M58.8,30.8c0,0.1,0,0.1,0,0.2c0,0,0,0.1,0,0.1
				c0,0.1,0,0.1,0,0.2c0,0,0,0.1,0,0.1c0,0.1,0,0.2-0.1,0.2c0,0,0,0,0,0c0,0.1-0.1,0.2-0.1,0.3c0,0,0,0,0,0
				c-0.1,0.2-0.2,0.4-0.3,0.5c0,0,0,0,0,0c-0.5,0.7-1.1,1.1-1.9,1.3c0,0,0,0,0,0c-0.1,0-0.2,0-0.3,0.1c0,0,0,0-0.1,0
				c-0.1,0-0.2,0-0.4,0c0,0,0,0,0,0c-0.1,0-0.2,0-0.3,0c0,0-0.1,0-0.1,0c-0.1,0-0.2,0-0.3,0c0,0,0,0,0,0c-0.1,0-0.2,0-0.3-0.1
				c0,0-0.1,0-0.1,0c-0.1,0-0.2-0.1-0.3-0.1c-0.1-0.1-0.3-0.1-0.4-0.2c-0.1,0-0.2-0.1-0.3-0.1c0,0,0,0,0,0c0,0,0,0,0,0
				c-0.6-0.3-1.7-0.7-2.4-0.9v-3.8c0.7-0.2,1.8-0.4,2.4-0.8c0,0,0,0,0,0c0,0,0,0,0,0c0.1,0,0.2-0.1,0.3-0.1c0.1-0.1,0.3-0.1,0.4-0.2
				c0.1,0,0.2-0.1,0.3-0.1c0,0,0.1,0,0.1,0c0.1,0,0.2,0,0.3-0.1c0,0,0,0,0,0c0.1,0,0.2,0,0.3,0c0,0,0.1,0,0.1,0c0.1,0,0.2,0,0.3,0
				c0,0,0,0,0,0c0.1,0,0.2,0,0.4,0c0,0,0,0,0.1,0c0.1,0,0.2,0,0.3,0.1c0,0,0,0,0,0c0.8,0.2,1.4,0.7,1.9,1.3c0,0,0,0,0,0
				c0.1,0.2,0.2,0.4,0.3,0.5c0,0,0,0,0,0c0,0.1,0.1,0.2,0.1,0.3c0,0,0,0,0,0c0,0.1,0,0.2,0.1,0.2c0,0,0,0.1,0,0.1c0,0.1,0,0.1,0,0.2
				c0,0,0,0.1,0,0.1c0,0.1,0,0.1,0,0.2c0,0.1,0,0.1,0,0.2C58.8,30.7,58.8,30.8,58.8,30.8z"/>
		</g>
		<g>
			<g>
				<path class="st1" d="M127,26.1v-2.1h0.9c0.2,0,0.4,0,0.5,0.1c0.1,0,0.2,0.1,0.3,0.2c0.1,0.1,0.1,0.2,0.1,0.3
					c0,0.2,0,0.3-0.1,0.4c-0.1,0.1-0.2,0.2-0.4,0.2c0.1,0.1,0.2,0.1,0.2,0.2c0.1,0.1,0.1,0.2,0.2,0.3l0.3,0.4h-0.5l-0.3-0.5
					c-0.1-0.2-0.2-0.3-0.2-0.3c0,0-0.1-0.1-0.1-0.1c0,0-0.1,0-0.2,0h-0.1v0.9H127z M127.5,24.8h0.3c0.2,0,0.3,0,0.4,0
					c0.1,0,0.1,0,0.1-0.1c0,0,0-0.1,0-0.2c0-0.1,0-0.1-0.1-0.2c0,0-0.1-0.1-0.2-0.1c0,0-0.1,0-0.3,0h-0.3V24.8z"/>
			</g>
			<path class="st1" d="M129.8,25.1c0,1-0.8,1.9-1.9,1.9c-1,0-1.9-0.8-1.9-1.9c0-1,0.8-1.9,1.9-1.9C128.9,23.2,129.8,24,129.8,25.1z
				 M127.9,26.7c0.9,0,1.6-0.7,1.6-1.6s-0.7-1.6-1.6-1.6s-1.6,0.7-1.6,1.6S127,26.7,127.9,26.7L127.9,26.7z"/>
		</g>
	</g>
</g>
</svg>
